# xmcd
#
# Track frame offsets:
#	150
#	15745
#	26073
#	36020
#	46781
#	56184
#	65431
#	77045
#	86294
#	96870
#	106858
#	117266
#	128930
#	135688
#	149985
#	158468
#	168641
#	178987
#
# Disc length: 2545 seconds
#
# Revision: 1
# Processed by: cddbd v1.5.2PL0 Copyright (c) Steve Scherf et al.
# Submitted via: audiograbber 1.83.01
#
DISCID=f809ef12
DTITLE=MGV Scholle - Hast a bissl Zeit?
DYEAR=2010
DGENRE=Kärntnerlied
TTITLE0=Kärntnerland
TTITLE1=Das Falkertlied
TTITLE2=Auf dein Mund liaber Schatz
TTITLE3=Auf der Flattnitzer Alman (Sextett Solo: H.Lobnig)
TTITLE4=Was bleibst denn da draußen (Quintett)
TTITLE5=A Göschle muaßt habn
TTITLE6=Treib´ a Lüftle den Nebl (Solo: Josef Lobnig)
TTITLE7=Die Lederhosn is mei Gwand
TTITLE8=Turracherlied (Quintett Solo: Franz Hrastnig)
TTITLE9=Da druntn beim Bachlan
TTITLE10=Auf´d Nacht um halber neune  (Solo: Lukas Joham)
TTITLE11=Das Lattersteiglied  (Solo: Manfred Payer)
TTITLE12=Bin schon überall gwesn
TTITLE13=Buaman seid´s lustig  (Soli: F.Hrastnig,Ch.Joham,L.Joham,M.Liebhard)
TTITLE14=Hear a Liadle i wo  (Quartett)
TTITLE15=Fallt die Zeit  (Solo: Christian Trampitsch)
TTITLE16=Hat der Herbstwind die Blattlan
TTITLE17=Oh Glöckle von Hamattal
EXTD=www.mgv-scholle.at
EXTT0=
EXTT1=
EXTT2=
EXTT3=
EXTT4=
EXTT5=
EXTT6=
EXTT7=
EXTT8=
EXTT9=
EXTT10=
EXTT11=
EXTT12=
EXTT13=
EXTT14=
EXTT15=
EXTT16=
EXTT17=
PLAYORDER=
